<?xml version="1.0" encoding="UTF-8" standalone="no"?>
<!DOCTYPE svg PUBLIC "-//W3C//DTD SVG 1.1//EN" "http://www.w3.org/Graphics/SVG/1.1/DTD/svg11.dtd">
<svg width="100%" height="100%" viewBox="0 0 554 489" version="1.1" xmlns="http://www.w3.org/2000/svg" xmlns:xlink="http://www.w3.org/1999/xlink" xml:space="preserve" xmlns:serif="http://www.serif.com/" style="fill-rule:evenodd;clip-rule:evenodd;stroke-linejoin:round;stroke-miterlimit:2;">
    <g transform="matrix(1,0,0,1,-88.9504,-150)">
        <g>
            <g transform="matrix(3.57497,-1.07605,1.07605,3.57497,337.491,400.126)">
                <path d="M61,-44.6C76.1,-29.7 83.4,-4.5 78.9,19.3C74.5,43 58.4,65.4 38.9,71C19.4,76.7 -3.5,65.8 -21.6,53.7C-39.7,41.6 -53.1,28.4 -59.3,10.8C-65.6,-6.9 -64.7,-28.9 -53.7,-42.9C-42.6,-56.9 -21.3,-62.8 0.8,-63.5C22.9,-64.1 45.9,-59.5 61,-44.6Z" style="fill:rgb(243,203,93);fill-rule:nonzero;"/>
            </g>
            <g transform="matrix(1,0,0,1,0,10.4916)">
                <g transform="matrix(9,0,0,-8.99853,220.034,301.876)">
                    <rect x="28.815" y="4" width="1.996" height="1" style="fill:rgb(235,163,165);"/>
                </g>
                <g transform="matrix(9,0,0,-8.99853,220.034,652.818)">
                    <path d="M2,36L2,16C2,13.791 3.791,12 6,12L30,12C32.209,12 34,13.791 34,16L34,36L2,36Z" style="fill:rgb(231,148,131);fill-rule:nonzero;"/>
                </g>
                <g transform="matrix(9,0,0,-8.99853,220.034,373.864)">
                    <path d="M30,13L6,13C3.791,13 2,11.209 2,9L2,4L34,4L34,9C34,11.209 32.209,13 30,13Z" style="fill:rgb(232,138,141);fill-rule:nonzero;"/>
                </g>
                <g transform="matrix(9,0,0,-8.99853,220.034,351.223)">
                    <path d="M8.836,5.753C8.134,5.753 7.565,6.419 7.565,7.242C7.565,8.064 8.134,8.731 8.836,8.731C9.537,8.731 10.106,8.064 10.106,7.242C10.106,6.42 9.537,5.753 8.836,5.753ZM14.836,5.753C14.134,5.753 13.565,6.419 13.565,7.242C13.565,8.064 14.134,8.731 14.836,8.731C15.537,8.731 16.106,8.064 16.106,7.242C16.106,6.42 15.537,5.753 14.836,5.753ZM20.836,5.753C20.134,5.753 19.565,6.419 19.565,7.242C19.565,8.064 20.134,8.731 20.836,8.731C21.537,8.731 22.107,8.064 22.107,7.242C22.106,6.42 21.537,5.753 20.836,5.753ZM26.836,5.753C26.134,5.753 25.565,6.419 25.565,7.242C25.565,8.064 26.134,8.731 26.836,8.731C27.537,8.731 28.107,8.064 28.107,7.242C28.106,6.42 27.537,5.753 26.836,5.753Z" style="fill:rgb(89,54,55);fill-rule:nonzero;"/>
                </g>
                <g transform="matrix(9,0,0,-8.99853,220.034,297.952)">
                    <path d="M27.315,8.385C26.038,8.385 24.932,7.583 24.321,6.415C23.715,7.558 22.604,8.385 21.315,8.385C20.038,8.385 18.932,7.583 18.321,6.415C17.715,7.558 16.604,8.385 15.315,8.385C14.038,8.385 12.932,7.583 12.321,6.415C11.715,7.558 10.604,8.385 9.315,8.385C7.381,8.385 5.815,6.566 5.815,4.38C5.815,2.526 6.86,1.009 8.384,0.454C9.143,0.179 9.608,0.901 9.543,1.48C9.488,1.96 9.169,2.273 8.814,2.498C8.329,2.805 7.814,3.506 7.814,4.375C7.814,5.479 8.485,6.47 9.314,6.47C10.143,6.47 10.814,5.565 10.814,4.565L11.83,4.565C11.827,4.503 11.814,4.444 11.814,4.381C11.814,2.527 12.859,1.01 14.383,0.455C15.142,0.18 15.607,0.902 15.542,1.481C15.487,1.96 15.168,2.273 14.813,2.498C14.328,2.805 13.813,3.506 13.813,4.375C13.813,5.479 14.484,6.47 15.313,6.47C16.142,6.47 16.815,5.564 16.815,4.564L17.831,4.564C17.828,4.502 17.815,4.443 17.815,4.38C17.815,2.526 18.86,1.009 20.384,0.454C21.143,0.179 21.608,0.901 21.543,1.48C21.488,1.959 21.169,2.272 20.814,2.497C20.329,2.804 19.814,3.505 19.814,4.374C19.814,5.478 20.485,6.469 21.314,6.469C22.143,6.469 22.815,5.564 22.815,4.564L23.831,4.564C23.828,4.502 23.815,4.443 23.815,4.38C23.815,2.526 24.86,1.009 26.384,0.454C27.143,0.179 27.608,0.901 27.543,1.48C27.488,1.959 27.169,2.272 26.814,2.497C26.329,2.804 25.814,3.505 25.814,4.374C25.814,5.478 26.485,6.469 27.314,6.469C28.143,6.469 28.815,5.564 28.815,4.564L30.811,4.564C30.79,6.564 29.235,8.385 27.315,8.385Z" style="fill:rgb(235,163,165);fill-rule:nonzero;"/>
                </g>
                <g transform="matrix(9,0,0,-8.99853,220.034,661.817)">
                    <path d="M11,34L15,34L15,30L11,30L11,34ZM16,34L20,34L20,30L16,30L16,34ZM21,34L25,34L25,30L21,30L21,34ZM26,34L30,34L30,30L26,30L26,34ZM6,29L10,29L10,25L6,25L6,29ZM11,29L15,29L15,25L11,25L11,29ZM16,29L20,29L20,25L16,25L16,29ZM21,29L25,29L25,25L21,25L21,29ZM26,29L30,29L30,25L26,25L26,29ZM6,24L10,24L10,20L6,20L6,24ZM11,24L15,24L15,20L11,20L11,24ZM16,24L20,24L20,20L16,20L16,24ZM21,24L25,24L25,20L21,20L21,24ZM26,24L30,24L30,20L26,20L26,24ZM6,19L10,19L10,15L6,15L6,19ZM11,19L15,19L15,15L11,15L11,19ZM16,19L20,19L20,15L16,15L16,19Z" style="fill:rgb(245,232,233);fill-rule:nonzero;"/>
                </g>
            </g>
        </g>
    </g>
</svg>
