<?xml version="1.0" encoding="UTF-8" standalone="no"?>
<!DOCTYPE svg PUBLIC "-//W3C//DTD SVG 1.1//EN" "http://www.w3.org/Graphics/SVG/1.1/DTD/svg11.dtd">
<svg width="100%" height="100%" viewBox="0 0 469 489" version="1.1" xmlns="http://www.w3.org/2000/svg" xmlns:xlink="http://www.w3.org/1999/xlink" xml:space="preserve" xmlns:serif="http://www.serif.com/" style="fill-rule:evenodd;clip-rule:evenodd;stroke-linejoin:round;stroke-miterlimit:2;">
    <g transform="matrix(1,0,0,1,-772.332,-169.279)">
        <g>
            <g transform="matrix(0.520221,0.8308,-0.831105,0.520031,1081.84,127.67)">
                <path d="M199.599,-32.762C324.147,-14.615 413.483,65.252 434.657,151.296C455.83,237.34 468.957,451.776 199.599,453.883C-69.758,455.991 -76.604,75.839 73.659,1.073C166.557,-45.186 199.599,-32.762 199.599,-32.762Z" style="fill:rgb(214,230,98);fill-rule:nonzero;"/>
            </g>
            <g transform="matrix(3.31414,0,0,-3.31343,852.119,553.937)">
                <path d="M0.328,21.086L0.164,51.414L46.883,68.48L95.457,52.957L94.613,26.395L57.539,3.813L0.328,21.086" style="fill:rgb(248,159,165);"/>
            </g>
            <g transform="matrix(3.31414,0,0,-3.31343,852.119,548.98)">
                <path d="M5.121,37.699L4.445,22.023L12.453,19.484L13.73,35.484L5.121,37.699ZM21.574,42.602L38.281,51.313L47.836,48.379L31.906,39.387L29.867,28.02L20.789,30.359L21.574,42.602" style="fill:rgb(254,247,228);"/>
            </g>
            <g transform="matrix(3.31414,0,0,-3.31343,852.119,590.139)">
                <path d="M53.992,56.27L46.488,51.68L56.84,48.305L64.512,53.039L53.992,56.27ZM86.609,48.566L85.695,38.094L60.988,26.949L61.105,37.902L86.609,48.566" style="fill:rgb(254,247,228);"/>
            </g>
            <g transform="matrix(3.31414,0,0,-3.31343,852.119,615.093)">
                <path d="M75.773,46.641L81.441,51.418L82.254,48.25L81.395,48.469L81.09,47.691L79.605,47.711L81.008,47.016L81.711,47.813L82.336,47.934L82.914,46.367L76.012,46.055L66.84,41.715L64.227,38.824L64.313,44.32L66.605,43.133L75.773,46.641ZM84.469,46.262C83.648,45.898 79.887,44.223 75.691,42.352C70.242,39.918 64.063,37.148 62.605,36.496L62.813,44.609C63.75,45.008 70.52,47.859 76.43,50.363C80.355,52.023 83.902,53.535 85.121,54.055L84.469,46.262ZM85.633,54.758C85.547,54.82 85.438,54.832 85.344,54.793C85.344,54.793 81.07,52.945 76.227,50.84C69.887,48.082 62.566,44.883 62.566,44.883L62.566,44.891C62.504,44.859 62.465,44.801 62.461,44.73L62.453,44.73L62.156,36.156C62.152,36.082 62.191,36.012 62.254,35.969C62.316,35.926 62.395,35.918 62.465,35.949C62.465,35.949 69.676,39.102 75.914,41.84C80.68,43.93 84.879,45.777 84.879,45.777C84.98,45.824 85.047,45.922 85.059,46.031L85.754,54.496C85.762,54.598 85.715,54.699 85.633,54.758" style="fill:rgb(209,49,35);"/>
            </g>
            <g transform="matrix(3.31414,0,0,-3.31343,852.119,604.272)">
                <path d="M42.215,34.285C42.113,34.504 41.965,34.699 41.742,34.785C41.48,34.891 41.105,34.891 40.82,34.754C40.613,34.66 40.453,34.508 40.398,34.281C40.398,34.273 40.395,34.266 40.387,34.258C40.336,33.988 40.238,33.727 40.25,33.461C40.258,33.305 40.324,33.16 40.477,33C40.582,32.883 40.711,32.828 40.844,32.793C41.059,32.738 41.285,32.785 41.5,32.871C41.684,32.945 41.848,33.055 41.984,33.187C42.117,33.313 42.23,33.453 42.27,33.621C42.328,33.836 42.305,34.078 42.215,34.285ZM42.754,34.582C42.965,34.254 43.043,33.852 42.996,33.48C42.945,33.16 42.785,32.859 42.547,32.621C42.328,32.402 42.051,32.238 41.754,32.148C41.574,32.09 41.387,32.059 41.203,32.063C40.742,32.074 40.309,32.246 40.039,32.668C39.855,32.977 39.805,33.238 39.855,33.488C39.922,33.836 40.156,34.137 40.277,34.477C40.285,34.512 40.32,34.535 40.352,34.535C40.438,34.766 40.629,34.945 40.863,35.07C41.18,35.242 41.563,35.285 41.871,35.23C42.246,35.156 42.547,34.902 42.754,34.582ZM40.883,39.012L40.887,39.008L40.887,39.027L40.879,39.023L40.883,39.02L40.883,39.012ZM38.949,38.602C38.961,38.598 38.965,38.613 38.969,38.637C38.945,38.629 38.926,38.613 38.949,38.602ZM40.879,39.023C40.852,39.004 40.844,38.984 40.867,38.965C40.879,38.957 40.883,38.98 40.887,38.992L40.887,39.008C40.895,39 40.906,38.996 40.922,39.004C40.953,39.012 40.953,39.031 40.934,39.047C40.914,39.043 40.902,39.035 40.887,39.027L40.887,39.078L40.871,39.086C40.871,39.063 40.871,39.039 40.879,39.023ZM38.879,38.73C38.859,38.988 38.898,39.449 38.902,39.48C38.941,39.836 39.004,40.203 39.102,40.555C39.168,40.801 39.254,41.039 39.363,41.262C39.422,41.387 39.516,41.551 39.629,41.668C39.707,41.746 39.801,41.797 39.898,41.832C40.105,41.898 40.277,41.824 40.414,41.684C40.566,41.531 40.648,41.215 40.684,41.074C40.73,40.887 40.758,40.695 40.781,40.504C40.809,40.262 40.82,40.016 40.836,39.773C40.883,39.785 40.926,39.797 40.965,39.809C41.242,39.879 41.547,39.91 41.852,39.891C42.152,39.871 42.453,39.805 42.715,39.684C42.828,39.633 42.914,39.551 42.965,39.445C43.016,39.602 43.023,39.793 43.004,39.984C42.965,40.32 42.844,40.652 42.633,40.797C42.602,40.82 42.59,40.848 42.574,40.832C42.555,40.813 42.547,40.785 42.539,40.754C42.504,40.59 42.535,40.336 42.547,40.273C42.555,40.25 42.539,40.223 42.516,40.215C42.492,40.211 42.469,40.223 42.461,40.246C42.43,40.332 42.34,40.703 42.395,40.879C42.438,41.012 42.539,41.082 42.742,40.977C43.023,40.832 43.242,40.453 43.344,40.043C43.453,39.605 43.391,39.145 43.176,38.875C42.895,38.531 42.691,38.695 42.605,38.805C42.57,38.855 42.543,38.949 42.52,39.063C42.512,39.09 42.496,39.137 42.484,39.164C42.281,39.227 42.059,39.25 41.836,39.242C41.605,39.238 41.375,39.191 41.168,39.121C41.121,39.105 41.027,39.082 40.953,39.055C40.973,39.027 40.992,39 41,38.988C41.031,38.934 41.047,38.887 41.055,38.848C41.09,38.707 41.039,38.602 40.984,38.52C40.926,38.441 40.813,38.328 40.57,38.367C40.434,38.391 40.305,38.477 40.219,38.633C40.137,38.789 40.102,39.09 40.094,39.172C40.051,39.594 40.055,40.02 40.031,40.445C40.023,40.609 40.016,40.773 39.988,40.941C39.984,40.98 39.977,41.047 39.961,41.117C39.922,41.07 39.891,41.023 39.863,40.98C39.715,40.75 39.59,40.5 39.488,40.242C39.379,39.969 39.293,39.695 39.219,39.422C39.211,39.391 39.117,39.031 39.086,38.789C39.113,38.77 39.125,38.738 39.113,38.707C39.109,38.687 39.117,38.582 39.105,38.547C39.09,38.488 39.043,38.477 39.012,38.477C38.98,38.473 38.957,38.492 38.934,38.516C38.906,38.543 38.887,38.621 38.879,38.73ZM40.758,36.41C40.766,36.383 40.773,36.367 40.797,36.379C40.82,36.391 40.793,36.402 40.758,36.41ZM39.891,37.402C39.883,37.418 39.871,37.41 39.855,37.391L39.859,37.391C39.871,37.395 39.898,37.391 39.891,37.402ZM39.762,37.414C39.754,37.426 39.746,37.434 39.738,37.426C39.734,37.422 39.746,37.422 39.75,37.418L39.762,37.414ZM38.805,36.016C38.816,35.953 38.84,35.906 38.879,35.926C38.945,35.957 38.883,35.992 38.805,36.016ZM38.574,36.02C38.57,36.02 38.563,36.016 38.559,36.012C38.547,36.004 38.48,35.992 38.504,35.977C38.535,35.961 38.559,35.98 38.574,36.02ZM43.258,37.172C43.523,37.246 43.77,37.391 44.051,37.402C44.074,37.406 44.098,37.387 44.102,37.363C44.105,37.336 44.086,37.316 44.063,37.313C43.793,37.258 43.582,37.074 43.336,36.961C43.219,36.906 43.094,36.871 42.957,36.859C42.703,36.84 42.422,37.035 42.164,37.094C42.109,37.105 42.059,37.102 42.008,37.066C41.887,36.984 41.777,36.777 41.645,36.574C41.496,36.34 41.328,36.109 41.156,35.957C40.984,35.809 40.793,35.746 40.602,35.758C40.461,35.766 40.348,35.84 40.254,35.945C40.152,36.063 40.094,36.258 40.055,36.375C40.016,36.508 39.957,36.859 39.859,37.164C39.844,37.219 39.824,37.27 39.801,37.316C39.797,37.309 39.789,37.301 39.785,37.293C39.715,37.195 39.648,37.078 39.586,36.953C39.422,36.625 39.293,36.262 39.219,36.102C39.191,36.043 39.102,35.793 39.012,35.664C38.914,35.531 38.801,35.465 38.711,35.461C38.602,35.457 38.484,35.484 38.406,35.605C38.375,35.66 38.336,35.738 38.32,35.836C38.297,35.973 38.297,36.152 38.293,36.18C38.281,36.387 38.277,36.594 38.277,36.801C38.277,37.105 38.289,37.41 38.289,37.715C38.293,37.77 38.266,37.965 38.273,38.086C38.277,38.148 38.289,38.195 38.309,38.219C38.332,38.25 38.379,38.258 38.41,38.234C38.441,38.211 38.449,38.168 38.426,38.137L38.523,37.734C38.586,37.383 38.637,37.039 38.703,36.687L38.707,36.656C38.797,36.953 38.918,37.348 39.086,37.641C39.273,37.973 39.543,38.164 39.801,38.187C40.039,38.203 40.254,38.098 40.41,37.863C40.508,37.715 40.586,37.508 40.637,37.281C40.703,36.992 40.727,36.68 40.754,36.555C40.758,36.535 40.754,36.488 40.758,36.445C40.793,36.465 40.832,36.504 40.871,36.543C41.195,36.836 41.516,37.324 41.781,37.457C41.949,37.539 42.113,37.543 42.281,37.477C42.406,37.43 42.531,37.348 42.66,37.27C42.758,37.211 42.855,37.148 42.957,37.137C43.063,37.129 43.16,37.145 43.258,37.172ZM45.18,36.68C45.184,38.586 44.695,40.543 43.867,41.953C43.168,43.137 42.234,43.941 41.141,43.945L41.141,43.957C40.039,43.953 39.156,43.301 38.523,42.262C37.773,41.039 37.375,39.281 37.383,37.383C37.387,35.469 37.938,33.652 38.824,32.379C39.555,31.336 40.516,30.664 41.594,30.664C42.676,30.664 43.516,31.199 44.109,32.105C44.816,33.187 45.176,34.789 45.18,36.68ZM44.227,42.168C45.102,40.703 45.621,38.664 45.629,36.68C45.633,34.684 45.246,32.996 44.5,31.848C43.82,30.801 42.844,30.199 41.594,30.199C40.375,30.203 39.273,30.934 38.453,32.121C37.527,33.461 36.953,35.371 36.957,37.383C36.965,39.367 37.402,41.195 38.191,42.469C38.906,43.621 39.91,44.328 41.141,44.324L41.141,44.336C42.363,44.34 43.438,43.484 44.227,42.168ZM46.668,36.742C46.672,39.172 46.016,41.668 44.898,43.453C43.977,44.934 42.738,45.922 41.301,45.926L41.301,45.941C39.859,45.938 38.695,45.129 37.852,43.84C36.844,42.293 36.301,40.055 36.309,37.629C36.313,35.184 37.051,32.863 38.246,31.254C39.215,29.949 40.48,29.121 41.898,29.121C43.32,29.121 44.434,29.781 45.219,30.91C46.176,32.281 46.664,34.324 46.668,36.742ZM45.254,43.676C46.414,41.836 47.109,39.258 47.117,36.742C47.121,34.215 46.602,32.078 45.602,30.641C44.727,29.383 43.484,28.656 41.898,28.656C40.344,28.66 38.938,29.551 37.883,30.984C36.645,32.664 35.879,35.082 35.883,37.629C35.891,40.141 36.473,42.457 37.527,44.055C38.449,45.453 39.73,46.309 41.301,46.305L41.301,46.32C42.867,46.324 44.238,45.281 45.254,43.676ZM95.008,67.492L57.734,49.082C57.793,49.051 57.84,48.996 57.84,48.926C57.84,48.926 57.871,45.082 57.902,40.187C57.91,38.348 57.922,36.355 57.926,34.363C57.938,27.082 57.922,19.801 57.922,19.801C57.922,19.703 57.84,19.621 57.738,19.621C57.641,19.621 57.559,19.699 57.559,19.801C57.559,19.801 57.492,27.082 57.461,34.363C57.449,36.352 57.449,38.344 57.445,40.187C57.441,45.082 57.449,48.922 57.449,48.922C57.449,48.992 57.488,49.039 57.539,49.074C56.961,49.246 46.457,52.336 34.59,55.844C18.602,60.57 0.141,66.051 0.141,66.051C0.039,66.082 -0.023,66.188 0.008,66.293C0.039,66.395 0.148,66.453 0.25,66.426C0.25,66.426 18.727,61 34.723,56.289C46.301,52.875 56.578,49.832 57.609,49.527L94.848,67.816C94.938,67.863 95.047,67.824 95.09,67.734C95.133,67.645 95.098,67.535 95.008,67.492" style="fill:rgb(46,59,93);"/>
            </g>
            <g transform="matrix(3.31414,0,0,-3.31343,852.119,508.364)">
                <path d="M58.152,28.32L58.984,28.32L58.984,27.961L58.152,27.961L58.152,28.32ZM57.246,28.621L57.703,28.621L57.703,28.219L57.246,28.219L57.246,28.621ZM55.508,27.684L56.281,27.684L56.281,27.227L55.508,27.227L55.508,27.684ZM53.848,28.137L54.262,27.695L53.699,27.164L53.281,27.605L53.848,28.137ZM61.523,28.086L62.027,28.418L62.688,28.223L62.215,27.789L61.523,28.086ZM54.656,30.652L54.141,30.242L53.531,30.547L54.008,30.855L54.656,30.652ZM48.535,27.281L49.02,27.594L49.59,27.293L49.148,26.98L48.535,27.281ZM63.266,28.281L62.23,27.535L61,28.039L61.973,28.695L63.266,28.281ZM60.418,27.977L62.289,27.309L63.793,28.348L61.965,28.906L60.418,27.977ZM54.176,29.996L53,30.469L53.973,31.129L55.137,30.742L54.176,29.996ZM53.965,31.34L52.418,30.406L54.32,29.594L55.711,30.77L53.965,31.34ZM50.035,27.359L49.184,26.734L48.008,27.207L48.98,27.863L50.035,27.359ZM47.426,27.145L49.297,26.477L50.656,27.363L48.973,28.074L47.426,27.145ZM45.188,44.277C44.043,45.238 41.699,46.621 39.656,48.324C38.469,49.313 37.383,50.41 36.723,51.605C36.137,52.656 35.66,54.633 36.031,56.09C36.258,56.98 36.836,57.656 37.984,57.691C38.488,57.707 38.941,57.527 39.355,57.258C40.031,56.809 40.598,56.121 41.059,55.527C42.043,54.258 42.934,52.883 43.703,51.441C44.469,50 45.109,48.492 45.598,46.961C45.875,46.09 46.359,44.012 46.676,42.871C46.621,42.91 46.57,42.953 46.516,42.996C46.055,43.379 45.633,43.906 45.188,44.277ZM56.207,49.516C60.695,51.141 65.332,51.168 66.422,50.848C67.605,50.5 68.211,49.551 68.375,48.441C67.137,48.473 65.59,48.246 63.906,47.848C61.574,47.301 58.988,46.457 56.656,45.605C53.234,44.359 50.371,43.105 49.664,42.98L48.07,42.746C48.164,42.996 48.246,43.227 48.262,43.254C49.977,46.453 53.059,48.379 56.207,49.516ZM68.191,46.23C67.645,44.426 66.168,42.848 64.09,43.16C63.246,43.285 61.695,43.23 59.91,43.09C56.449,42.809 52.078,42.211 50.43,42.078C50.277,42.066 49.988,42.094 49.602,42.152C49.668,42.16 49.734,42.168 49.801,42.18C50.523,42.301 53.48,43.48 56.969,44.75C59.273,45.586 61.809,46.465 64.102,47.039C65.734,47.445 67.234,47.707 68.426,47.691C68.418,47.207 68.34,46.707 68.191,46.23ZM76.961,27.707C76.582,29.527 76.137,30.848 75.711,31.395C74.691,32.707 72.695,33.898 70.301,34.957C65.609,37.027 59.375,38.621 56.43,39.91C55.895,40.145 54.961,40.426 53.867,40.719C53.094,40.926 52.242,41.133 51.398,41.336C53.422,41.543 57.027,42 59.98,42.23C61.68,42.359 63.156,42.418 63.961,42.293C66.504,41.902 68.367,43.766 69.043,45.969C69.211,46.508 69.293,47.066 69.309,47.617C69.637,47.559 69.93,47.469 70.164,47.332C70.336,47.23 70.551,47.289 70.652,47.457C70.754,47.625 70.699,47.844 70.527,47.945C70.191,48.148 69.766,48.281 69.273,48.363C69.109,49.895 68.293,51.238 66.68,51.715C65.527,52.055 60.629,52.09 55.895,50.375C52.547,49.164 49.285,47.086 47.469,43.676C47.461,43.668 47.445,43.621 47.418,43.555C47.105,44.734 46.691,46.457 46.441,47.23C45.934,48.813 45.266,50.363 44.473,51.852C43.676,53.336 42.754,54.75 41.734,56.055C41.219,56.715 40.578,57.473 39.82,57.969C39.262,58.332 38.637,58.559 37.957,58.535C36.352,58.48 35.535,57.543 35.227,56.293C34.813,54.641 35.348,52.402 36.016,51.211C36.727,49.941 37.879,48.766 39.148,47.715C41.199,46.02 43.551,44.648 44.703,43.695C44.969,43.473 45.227,43.199 45.492,42.93C41.121,43.813 34.754,45.137 29.43,45.75C26.945,46.035 24.68,46.164 22.953,46.027C21.73,45.93 20.766,45.691 20.145,45.305C19.977,45.199 19.926,44.98 20.031,44.813C20.133,44.648 20.352,44.598 20.52,44.699C21.07,45.043 21.93,45.223 23.008,45.305C24.699,45.434 26.91,45.293 29.344,45.004C34.922,44.34 41.652,42.883 46.004,41.996C45.961,41.988 45.922,41.977 45.879,41.969C44.688,41.789 43.387,41.859 42.438,41.824C41.781,41.797 41.117,41.781 40.457,41.766C39.465,41.746 38.473,41.73 37.477,41.719C35.879,41.687 33.664,41.824 31.297,41.836C28.109,41.848 24.645,41.625 21.984,40.559C19.695,39.645 17.988,38.109 17.469,35.602L18.164,35.449C18.816,38.391 21.309,39.758 24.34,40.402C26.383,40.836 28.672,40.934 30.852,40.93C33.391,40.926 35.789,40.785 37.496,40.824C38.492,40.848 39.488,40.871 40.48,40.902C41.148,40.926 41.813,40.953 42.477,40.984C43.348,41.031 44.512,41.008 45.621,41.148C42.219,38.891 37.77,36.129 33.949,33.418C31.797,31.891 29.848,30.383 28.391,28.996C26.961,27.625 25.75,25.887 24.746,23.934C23.375,21.266 22.383,18.203 21.699,15.187C20.375,9.348 20.219,3.684 20.668,1.375C20.754,0.926 20.871,0.594 20.996,0.387C21.125,0.176 21.285,0.062 21.438,0.027C21.621,-0.02 21.832,0.02 22.043,0.223C22.184,0.355 22.191,0.582 22.055,0.723C21.934,0.848 21.746,0.867 21.605,0.777C21.578,0.832 21.539,0.906 21.516,0.973C21.441,1.18 21.383,1.461 21.332,1.797C20.918,4.652 21.352,11.52 23.309,17.926C24.539,21.961 26.375,25.816 29.023,28.336C30.445,29.703 32.359,31.187 34.465,32.695C38.766,35.785 43.848,38.965 47.328,41.391C47.582,41.25 48.051,41.07 48.129,41.031C48.859,40.68 49.578,40.301 50.277,39.887C50.973,39.48 51.645,39.039 52.297,38.555C53.652,37.551 54.832,36.371 55.984,35.168C57.16,33.937 58.309,32.68 59.559,31.516C60.633,30.516 61.781,29.59 63.09,28.816C63.719,28.449 65.047,27.574 66.223,27.164C66.855,26.941 67.453,26.859 67.906,26.996L67.703,27.68C67.266,27.555 66.66,27.762 66.039,28.043C65.043,28.492 64.023,29.191 63.504,29.508C62.262,30.27 61.18,31.18 60.16,32.152C58.934,33.32 57.813,34.582 56.641,35.801C55.453,37.039 54.215,38.227 52.805,39.25C52.121,39.738 51.414,40.187 50.684,40.598C50.551,40.672 50.406,40.734 50.27,40.809C51.395,40.539 52.602,40.238 53.66,39.945C54.699,39.66 55.59,39.383 56.098,39.156C59.035,37.852 65.25,36.211 69.934,34.129C72.16,33.137 74.043,32.059 74.992,30.836C75.375,30.348 75.734,29.152 76.078,27.523C76.844,23.891 77.422,18.16 77.422,12.852C77.422,7.738 76.91,3.016 75.445,1.016C75.328,0.859 75.363,0.637 75.52,0.52C75.68,0.402 75.902,0.437 76.02,0.594C77.555,2.656 78.199,7.543 78.234,12.848C78.273,18.223 77.719,24.027 76.961,27.707" style="fill:rgb(64,0,9);"/>
            </g>
        </g>
    </g>
</svg>
